<svg xmlns="http://www.w3.org/2000/svg" xmlns:xlink="http://www.w3.org/1999/xlink" width="1080" zoomAndPan="magnify" viewBox="0 0 810 689.999997" height="920" preserveAspectRatio="xMidYMid meet" version="1.0"><defs><clipPath id="1a4c64374c"><path d="M 78.007812 173 L 478 173 L 478 641 L 78.007812 641 Z M 78.007812 173 " clip-rule="nonzero"/></clipPath></defs><path fill="#ffffff" d="M 616.714844 132.753906 C 616.742188 133.898438 616.644531 135.15625 616.898438 136.253906 C 616.945312 135.121094 617.132812 133.785156 616.714844 132.753906 Z M 616.714844 132.753906 " fill-opacity="1" fill-rule="nonzero"/><path fill="#ffffff" d="M 391.492188 67.074219 C 391.683594 67.199219 391.878906 67.320312 392.074219 67.441406 C 392.355469 67.621094 392.628906 67.792969 392.90625 67.96875 C 393.261719 68.191406 393.613281 68.410156 393.96875 68.628906 C 394.269531 68.8125 394.574219 68.996094 394.875 69.179688 C 394.992188 69.25 395.113281 69.324219 395.230469 69.398438 C 395.519531 69.570312 395.816406 69.75 396.113281 69.921875 C 396.472656 70.136719 396.832031 70.347656 397.1875 70.558594 C 397.550781 70.769531 397.914062 70.972656 398.273438 71.179688 C 399.664062 71.96875 401.066406 72.738281 402.476562 73.480469 C 427.292969 86.558594 454.589844 91.769531 481.378906 98.597656 C 499.257812 104.027344 513.230469 117.402344 525.074219 131.335938 C 552.710938 166.285156 559.617188 210.878906 560.117188 254.925781 C 560.125 255.636719 560.128906 256.351562 560.132812 257.0625 C 560.136719 257.34375 560.136719 257.632812 560.136719 257.914062 C 560.148438 259.984375 560.148438 262.0625 560.128906 264.128906 C 561.816406 260.910156 563.527344 257.59375 565.242188 254.199219 C 565.527344 253.636719 565.816406 253.066406 566.101562 252.496094 C 566.386719 251.929688 566.675781 251.355469 566.960938 250.78125 C 595.328125 193.84375 623.207031 116.625 558.914062 90.523438 C 548.308594 87.195312 539.363281 80.671875 530.882812 73.683594 C 501.539062 47.855469 478.859375 48.488281 442.609375 57.464844 C 429.941406 60.238281 416.148438 63.320312 402.257812 64.933594 C 401.636719 65 401.011719 65.074219 400.390625 65.140625 C 400.058594 65.175781 399.726562 65.210938 399.394531 65.246094 C 398.714844 65.316406 398.03125 65.378906 397.347656 65.441406 C 396.941406 65.476562 396.527344 65.511719 396.117188 65.542969 C 395.640625 65.582031 395.164062 65.621094 394.691406 65.65625 C 394.472656 65.675781 394.253906 65.6875 394.035156 65.707031 C 393.730469 65.726562 393.421875 65.75 393.117188 65.765625 C 392.878906 65.785156 392.640625 65.796875 392.398438 65.808594 C 392.011719 65.832031 391.628906 65.851562 391.242188 65.875 C 390.738281 65.902344 390.234375 65.921875 389.734375 65.945312 C 390.082031 66.175781 390.433594 66.40625 390.785156 66.628906 C 391.023438 66.769531 391.257812 66.921875 391.492188 67.074219 Z M 391.492188 67.074219 " fill-opacity="1" fill-rule="nonzero"/><path fill="#ffffff" d="M 196.148438 288.695312 C 196.207031 289.007812 196.257812 289.324219 196.308594 289.640625 C 196.402344 290.191406 196.492188 290.738281 196.582031 291.289062 C 197.3125 290.101562 198.03125 288.902344 198.726562 287.691406 C 198.867188 287.445312 199.003906 287.207031 199.140625 286.960938 C 199.28125 286.71875 199.414062 286.472656 199.554688 286.230469 C 200.054688 285.335938 200.550781 284.433594 201.035156 283.523438 C 203.835938 278.269531 206.300781 272.839844 208.308594 267.25 C 218.511719 237.175781 218.035156 202.257812 238.878906 176.667969 C 271.484375 137.351562 349.785156 114.164062 398.0625 132.21875 C 444.066406 149.304688 466.839844 196.332031 483.800781 239.167969 C 485.339844 243.175781 486.824219 247.210938 488.296875 251.246094 C 488.769531 252.535156 489.238281 253.824219 489.710938 255.113281 C 490.074219 256.105469 490.433594 257.097656 490.804688 258.085938 C 491.230469 259.238281 491.65625 260.382812 492.082031 261.527344 C 492.292969 262.101562 492.511719 262.675781 492.726562 263.242188 C 493.164062 264.386719 493.597656 265.527344 494.035156 266.671875 C 494.445312 266.953125 494.855469 267.222656 495.277344 267.484375 C 495.382812 267.546875 495.480469 267.609375 495.585938 267.671875 C 495.675781 267.726562 495.769531 267.777344 495.859375 267.832031 C 496.617188 268.273438 497.382812 268.683594 498.171875 269.046875 C 498.292969 269.101562 498.410156 269.15625 498.53125 269.210938 C 498.660156 269.273438 498.792969 269.328125 498.921875 269.386719 C 499.050781 269.441406 499.179688 269.5 499.308594 269.550781 C 499.3125 269.550781 499.320312 269.554688 499.328125 269.558594 C 499.453125 269.613281 499.578125 269.660156 499.699219 269.710938 C 499.710938 269.714844 499.722656 269.714844 499.730469 269.722656 C 499.855469 269.773438 499.980469 269.824219 500.105469 269.867188 C 507.960938 272.835938 516.792969 271.886719 522.921875 264.402344 C 532.117188 252.300781 530.195312 235.570312 528.828125 221.3125 C 525.628906 195.921875 515.707031 170.996094 499.542969 151.058594 C 476.640625 121.898438 444.214844 116.355469 412.113281 103.34375 C 375.367188 85.90625 359.023438 58.324219 312.921875 72.648438 C 299.347656 77.347656 286.507812 83.96875 272.773438 88.25 C 253.222656 94.433594 231.25 96.832031 215.234375 110.722656 C 190.976562 132.539062 188.796875 171.644531 185.839844 202.246094 C 184.625 227.753906 189.097656 253.0625 194.160156 277.964844 C 194.851562 281.523438 195.53125 285.101562 196.148438 288.695312 Z M 196.148438 288.695312 " fill-opacity="1" fill-rule="nonzero"/><g clip-path="url(#1a4c64374c)"><path fill="#ffffff" d="M 477.152344 531.515625 C 476.351562 531.691406 475.566406 531.875 474.796875 532.066406 C 474.3125 532.152344 473.824219 532.242188 473.335938 532.324219 C 463.972656 533.921875 454.476562 534.769531 444.988281 535.046875 C 397.164062 534.816406 347.585938 528.871094 304.230469 507.582031 C 260.75 483.976562 216.929688 448.414062 197.367188 401.863281 C 192.8125 389.335938 191.164062 375.882812 191.257812 362.601562 C 191.425781 353.761719 192.621094 344.882812 191.347656 336.070312 C 188.925781 308.605469 169.339844 287.214844 160.722656 261.84375 C 152.308594 235.730469 160.386719 207.972656 169.808594 183.257812 C 170.742188 180.757812 171.660156 178.25 172.582031 175.738281 C 172.871094 174.933594 173.171875 174.128906 173.460938 173.316406 C 172.996094 173.398438 172.527344 173.480469 172.0625 173.566406 C 172.007812 173.578125 171.949219 173.589844 171.894531 173.597656 C 171.464844 173.679688 171.035156 173.761719 170.609375 173.851562 C 170.152344 173.941406 169.699219 174.03125 169.246094 174.132812 C 169.195312 174.140625 169.148438 174.148438 169.097656 174.164062 C 168.648438 174.253906 168.203125 174.355469 167.753906 174.453125 C 136.25 181.507812 106.378906 200.929688 91.027344 229.273438 C 78.84375 251.953125 80.472656 278.417969 79.398438 303.359375 C 79.105469 320.425781 78.027344 337.5 78.371094 354.566406 C 78.914062 377.765625 90.496094 397.445312 111.027344 408.445312 C 143.597656 426.175781 106.382812 440.839844 107.035156 464.070312 C 109.890625 497.851562 141.945312 519.839844 170.246094 532.988281 C 193.980469 544.515625 221.292969 546.21875 244.535156 558.796875 C 264.027344 568.558594 276.574219 586.664062 290.015625 603.074219 C 309.4375 627.285156 339.835938 642.144531 371.085938 639.804688 C 409.082031 637.769531 445.414062 615.09375 464.5 582.265625 C 472.664062 567.671875 476.089844 551.238281 477.011719 534.632812 C 477.070312 533.589844 477.117188 532.554688 477.152344 531.515625 Z M 477.152344 531.515625 " fill-opacity="1" fill-rule="nonzero"/></g><path fill="#ffffff" d="M 234.21875 261.070312 C 233.59375 258.214844 233.011719 255.308594 232.484375 252.371094 C 232.4375 252.089844 232.382812 251.800781 232.332031 251.515625 C 232.28125 251.214844 232.226562 250.910156 232.179688 250.613281 C 232.148438 250.445312 232.121094 250.277344 232.09375 250.113281 C 231.996094 249.546875 231.90625 248.988281 231.820312 248.421875 C 231.765625 248.101562 231.71875 247.785156 231.671875 247.46875 C 231.636719 247.242188 231.601562 247.007812 231.566406 246.78125 C 231.503906 246.351562 231.441406 245.925781 231.382812 245.5 C 231.261719 246.171875 231.144531 246.851562 231.027344 247.523438 C 230.917969 248.171875 230.808594 248.8125 230.699219 249.460938 C 230.6875 249.527344 230.675781 249.582031 230.664062 249.644531 C 230.445312 250.929688 230.234375 252.21875 230.027344 253.507812 C 229.566406 256.359375 229.132812 259.21875 228.722656 262.078125 C 228.648438 262.585938 228.578125 263.097656 228.503906 263.609375 C 228.183594 265.894531 227.882812 268.179688 227.601562 270.472656 C 227.566406 270.71875 227.542969 270.96875 227.511719 271.21875 C 223.675781 302.855469 223.550781 334.835938 231.441406 365.824219 C 251.988281 452.039062 331.132812 516.921875 421.371094 506.472656 C 489.425781 499.207031 495.75 459.996094 529.292969 412.957031 C 539.246094 401.816406 555.699219 400.816406 566.285156 390.59375 C 569.507812 386.761719 571.675781 382.539062 572.960938 378.101562 C 573 377.96875 573.035156 377.84375 573.070312 377.714844 C 573.105469 377.585938 573.140625 377.460938 573.171875 377.332031 C 573.1875 377.28125 573.199219 377.238281 573.210938 377.191406 C 573.246094 377.070312 573.277344 376.949219 573.304688 376.828125 C 573.359375 376.605469 573.414062 376.386719 573.464844 376.164062 C 573.503906 375.988281 573.546875 375.816406 573.582031 375.640625 C 573.628906 375.417969 573.675781 375.199219 573.71875 374.972656 C 573.753906 374.8125 573.78125 374.652344 573.8125 374.484375 C 573.828125 374.394531 573.84375 374.304688 573.859375 374.210938 C 573.890625 374.039062 573.921875 373.863281 573.945312 373.691406 C 573.972656 373.535156 573.996094 373.375 574.019531 373.21875 C 574.050781 373.023438 574.078125 372.832031 574.097656 372.636719 C 574.113281 372.539062 574.125 372.441406 574.136719 372.339844 C 574.160156 372.175781 574.179688 372.011719 574.199219 371.84375 C 574.078125 371.578125 573.949219 371.316406 573.820312 371.050781 C 573.621094 370.632812 573.414062 370.21875 573.199219 369.8125 C 573.105469 369.625 573.007812 369.4375 572.914062 369.257812 C 572.8125 369.066406 572.714844 368.875 572.609375 368.683594 C 572.511719 368.503906 572.417969 368.328125 572.3125 368.144531 C 572.253906 368.03125 572.191406 367.917969 572.128906 367.808594 C 571.910156 367.410156 571.679688 367.015625 571.449219 366.625 C 571.421875 366.582031 571.402344 366.535156 571.375 366.492188 C 571.304688 366.367188 571.230469 366.246094 571.152344 366.121094 C 571.066406 365.972656 570.976562 365.820312 570.882812 365.667969 C 570.710938 365.386719 570.53125 365.097656 570.359375 364.816406 C 570.21875 364.59375 570.078125 364.375 569.933594 364.148438 C 569.761719 363.882812 569.59375 363.621094 569.421875 363.363281 C 569.09375 362.867188 568.761719 362.375 568.421875 361.890625 C 568.300781 361.71875 568.183594 361.550781 568.0625 361.375 C 568.0625 361.378906 568.0625 361.378906 568.0625 361.378906 C 564.921875 356.96875 561.296875 352.910156 557.492188 349.398438 C 544.640625 337.046875 526.765625 331.117188 509.105469 331.394531 C 487.578125 331.179688 467.300781 339.539062 447.671875 347.476562 C 423.289062 357.394531 398.507812 367.480469 372.199219 370.699219 C 311.996094 378.394531 260.390625 345.9375 241.589844 288.199219 C 239.125 280.511719 236.410156 271.097656 234.21875 261.070312 Z M 234.21875 261.070312 " fill-opacity="1" fill-rule="nonzero"/><path fill="#ffffff" d="M 383.457031 212.355469 C 383.925781 212.890625 384.386719 213.433594 384.839844 213.984375 C 384.84375 213.984375 384.84375 213.984375 384.84375 213.984375 C 385.023438 214.207031 385.203125 214.429688 385.382812 214.652344 C 385.453125 214.734375 385.519531 214.820312 385.585938 214.90625 C 385.609375 214.9375 385.628906 214.964844 385.652344 214.992188 C 385.824219 215.214844 385.996094 215.433594 386.164062 215.652344 C 386.574219 216.1875 386.972656 216.730469 387.363281 217.28125 C 387.398438 217.332031 387.433594 217.378906 387.46875 217.429688 C 387.636719 217.664062 387.800781 217.902344 387.960938 218.148438 C 388.027344 218.242188 388.097656 218.339844 388.15625 218.4375 C 388.296875 218.644531 388.4375 218.847656 388.570312 219.050781 C 388.617188 219.121094 388.667969 219.191406 388.710938 219.265625 C 388.878906 219.523438 389.046875 219.785156 389.210938 220.046875 C 389.222656 220.0625 389.230469 220.074219 389.238281 220.09375 C 389.425781 220.382812 389.605469 220.679688 389.785156 220.976562 C 389.523438 218.691406 389.003906 216.433594 388.234375 214.242188 C 388.105469 213.800781 387.96875 213.363281 387.816406 212.929688 C 387.785156 212.839844 387.753906 212.742188 387.71875 212.652344 C 387.503906 212.023438 387.269531 211.402344 387.015625 210.785156 C 386.960938 210.640625 386.898438 210.503906 386.84375 210.359375 C 386.785156 210.21875 386.722656 210.082031 386.664062 209.941406 C 386.601562 209.804688 386.542969 209.664062 386.480469 209.523438 C 386.421875 209.386719 386.355469 209.246094 386.292969 209.113281 C 386.230469 208.972656 386.164062 208.839844 386.101562 208.699219 C 385.972656 208.425781 385.839844 208.152344 385.703125 207.882812 C 385.632812 207.75 385.566406 207.613281 385.496094 207.480469 C 372.355469 182.148438 332.472656 171.144531 311.644531 192.910156 C 297.851562 206.628906 296.363281 229.199219 304.070312 246.398438 C 311.992188 261.945312 326.777344 272.535156 337.9375 285.621094 C 355.894531 305.902344 373.257812 331.769531 403.484375 331.511719 C 430.054688 330.625 488.449219 304.027344 480.617188 271.113281 C 471.375 233.097656 426.136719 175.332031 394.027344 153.015625 C 377.832031 141.558594 356.839844 138.832031 338.265625 145.804688 C 314.875 152.894531 292.050781 162.039062 271.273438 175.035156 C 253.933594 184.980469 248.945312 205.417969 247.269531 223.960938 C 245.363281 240.382812 244.636719 257.5 250.625 273.210938 C 261.304688 308.261719 298.414062 332.925781 334.746094 329.945312 C 335.945312 329.8125 337.902344 329.433594 340.085938 328.898438 L 340.089844 328.898438 C 340.625 328.769531 341.167969 328.625 341.71875 328.472656 C 341.859375 328.4375 341.992188 328.398438 342.136719 328.359375 C 342.089844 328.1875 342.035156 328.011719 341.984375 327.839844 C 341.878906 327.492188 341.773438 327.144531 341.65625 326.796875 C 334.566406 305.441406 308.980469 291.960938 296.273438 273.542969 C 286.832031 260.34375 284.492188 244.117188 280.738281 228.71875 C 275.390625 200.816406 284.785156 186.070312 312.113281 178.78125 C 344.722656 166.964844 386.742188 175.269531 402.894531 208.539062 C 424.285156 254.140625 358.53125 280.035156 331.339844 245.644531 C 323.777344 236.226562 323.046875 222.667969 327.941406 211.859375 C 338.808594 189.722656 370.359375 195.210938 383.457031 212.355469 Z M 383.457031 212.355469 " fill-opacity="1" fill-rule="nonzero"/><path fill="#ffffff" d="M 336.273438 229.128906 C 334.734375 228.328125 333.207031 226.605469 332.25 225.601562 C 334.164062 229.714844 338.3125 231.835938 341.566406 234.730469 C 347.949219 239.734375 356.488281 243.59375 364.542969 240.445312 C 380.65625 234.085938 380.007812 209.117188 363.675781 203.46875 C 355.019531 200.082031 344.714844 207.046875 351.710938 215.996094 C 354.128906 219.625 358.964844 224.679688 355.234375 228.949219 C 350.4375 234.484375 339.40625 231.347656 336.273438 229.128906 Z M 336.273438 229.128906 " fill-opacity="1" fill-rule="nonzero"/><path fill="#ffffff" d="M 724.945312 355.273438 C 720.46875 344.347656 713.660156 334.496094 709.808594 323.292969 C 699.835938 293.550781 697.449219 260.667969 679.214844 234.203125 C 665.835938 212.929688 642.308594 197.757812 622.195312 199.875 C 622.1875 199.875 622.183594 199.875 622.175781 199.875 C 622.042969 199.886719 621.90625 199.902344 621.773438 199.917969 C 621.542969 199.941406 621.316406 199.96875 621.085938 200.003906 C 620.9375 200.027344 620.789062 200.042969 620.640625 200.070312 C 620.347656 200.109375 620.054688 200.160156 619.765625 200.210938 C 619.648438 200.234375 619.527344 200.25 619.40625 200.277344 C 619.089844 200.335938 618.769531 200.398438 618.453125 200.472656 C 618.308594 200.503906 618.164062 200.535156 618.023438 200.574219 C 617.734375 200.636719 617.449219 200.710938 617.160156 200.785156 C 617.019531 200.820312 616.875 200.859375 616.730469 200.902344 C 616.589844 200.941406 616.445312 200.980469 616.300781 201.023438 C 616.019531 201.105469 615.734375 201.195312 615.449219 201.285156 C 615.3125 201.328125 615.171875 201.375 615.035156 201.425781 C 614.734375 201.527344 614.433594 201.632812 614.132812 201.75 C 614.035156 201.785156 613.933594 201.824219 613.835938 201.863281 C 613.523438 201.984375 613.210938 202.109375 612.898438 202.246094 C 612.804688 202.28125 612.714844 202.320312 612.617188 202.363281 C 612.453125 202.4375 612.289062 202.511719 612.125 202.585938 C 612.007812 203.054688 611.882812 203.523438 611.761719 203.992188 C 611.75 204.042969 611.734375 204.09375 611.722656 204.144531 C 611.625 204.527344 611.519531 204.90625 611.414062 205.289062 C 611.375 205.429688 611.339844 205.5625 611.300781 205.703125 C 611.203125 206.066406 611.101562 206.429688 611 206.792969 C 611 206.800781 610.992188 206.804688 610.992188 206.816406 C 610.875 207.222656 610.757812 207.632812 610.636719 208.039062 C 610.625 208.09375 610.609375 208.152344 610.589844 208.203125 C 609.917969 210.480469 609.191406 212.742188 608.398438 215 C 603.117188 232.082031 590.667969 245.53125 584.09375 261.980469 C 577.601562 279.410156 579.90625 299.109375 585.953125 316.34375 C 590.949219 330.429688 599.691406 342.945312 603.730469 357.375 C 608.25 373.125 599.691406 384.417969 587.5 393.292969 C 583.800781 396.507812 580.230469 399.898438 576.875 403.472656 L 576.875 403.476562 C 576.570312 403.800781 576.265625 404.128906 575.964844 404.453125 C 571.785156 409.003906 567.941406 413.863281 564.597656 419.074219 C 553.246094 436.875 545.355469 456.980469 530.804688 472.632812 C 519.621094 484.371094 507.097656 495.632812 493.292969 504.597656 C 492.824219 504.902344 492.351562 505.210938 491.875 505.503906 C 491.40625 505.808594 490.929688 506.105469 490.453125 506.398438 C 492.605469 506.722656 494.761719 507.042969 496.921875 507.347656 C 507.910156 508.90625 518.9375 510.113281 530.007812 509.496094 C 564.589844 508.9375 592.757812 487.753906 622.488281 472.882812 C 654.722656 455.792969 701.632812 438.265625 722.457031 407.527344 C 731.8125 391.792969 731.910156 371.945312 724.945312 355.273438 Z M 724.945312 355.273438 " fill-opacity="1" fill-rule="nonzero"/><path fill="#ffffff" d="M 647.023438 495.515625 C 646.363281 496 645.703125 496.480469 645.035156 496.960938 C 644.578125 497.289062 644.128906 497.617188 643.671875 497.945312 C 643.320312 498.199219 642.972656 498.453125 642.621094 498.703125 C 641.257812 499.683594 639.882812 500.65625 638.503906 501.625 C 638 501.976562 637.5 502.328125 636.996094 502.679688 C 636.242188 503.207031 635.484375 503.734375 634.726562 504.253906 C 634.03125 504.730469 633.339844 505.210938 632.644531 505.679688 C 632.636719 505.683594 632.636719 505.683594 632.636719 505.683594 C 602.375 526.296875 568.902344 543.484375 531.4375 542.875 C 524.761719 542.773438 517.480469 542.339844 510.507812 540.878906 L 510.507812 540.875 C 510.171875 540.804688 509.839844 540.730469 509.503906 540.660156 C 509.167969 540.585938 508.835938 540.507812 508.503906 540.429688 C 508.390625 540.917969 508.277344 541.410156 508.160156 541.894531 C 508.042969 542.382812 507.925781 542.871094 507.800781 543.359375 C 507.558594 544.332031 507.304688 545.304688 507.039062 546.277344 C 501.339844 569.324219 491.238281 590.550781 478.761719 610.484375 C 478.296875 611.222656 477.832031 611.960938 477.367188 612.695312 C 477.136719 613.0625 476.898438 613.429688 476.664062 613.792969 C 475.015625 616.359375 473.324219 618.90625 471.605469 621.429688 C 472.066406 621.226562 472.519531 621.027344 472.980469 620.835938 C 473.140625 620.765625 473.308594 620.695312 473.46875 620.628906 C 473.988281 620.410156 474.515625 620.195312 475.039062 619.984375 C 475.234375 619.90625 475.429688 619.828125 475.632812 619.75 C 475.855469 619.65625 476.082031 619.570312 476.308594 619.484375 C 476.609375 619.367188 476.914062 619.253906 477.210938 619.140625 C 478.175781 618.78125 479.140625 618.433594 480.105469 618.105469 C 480.390625 618.011719 480.679688 617.910156 480.96875 617.820312 C 481.273438 617.71875 481.578125 617.621094 481.882812 617.523438 C 481.898438 617.515625 481.921875 617.511719 481.941406 617.507812 C 482.246094 617.410156 482.550781 617.316406 482.855469 617.226562 C 483.140625 617.136719 483.425781 617.050781 483.710938 616.96875 C 483.753906 616.957031 483.796875 616.941406 483.839844 616.929688 C 484.140625 616.84375 484.441406 616.753906 484.734375 616.671875 C 484.765625 616.664062 484.796875 616.65625 484.828125 616.648438 C 490.453125 615.070312 496.085938 614.109375 501.625 613.914062 C 516.023438 613.828125 529.265625 620.738281 543.578125 621.484375 C 572.136719 625.84375 595.335938 603.03125 606.820312 578.945312 C 618.976562 552.433594 625.644531 530.171875 640.660156 508.335938 C 641.195312 507.558594 641.742188 506.78125 642.300781 506 C 642.460938 505.777344 642.617188 505.558594 642.777344 505.339844 C 644.570312 502.867188 646.476562 500.398438 648.519531 497.925781 C 648.6875 497.722656 648.859375 497.515625 649.027344 497.3125 C 650.050781 496.085938 651.109375 494.863281 652.203125 493.632812 C 652.359375 493.460938 652.515625 493.28125 652.671875 493.109375 C 653.984375 491.644531 655.351562 490.183594 656.773438 488.714844 C 654.183594 490.484375 651.601562 492.261719 649.027344 494.054688 C 648.371094 494.53125 647.699219 495.027344 647.023438 495.515625 Z M 647.023438 495.515625 " fill-opacity="1" fill-rule="nonzero"/></svg>